<svg width="31" height="30" viewBox="0 0 31 30" fill="none" xmlns="http://www.w3.org/2000/svg">
<g id="icon_whatsup">
<circle id="bg" cx="15.3334" cy="15" r="15" fill="#192140"/>
<path id="icon" d="M22.1776 10.6999C19.7776 6.99988 14.8776 5.89988 11.0776 8.19988C7.37759 10.4999 6.17759 15.4999 8.57759 19.1999L8.77759 19.4999L7.97759 22.4999L10.9776 21.6999L11.2776 21.8999C12.5776 22.5999 13.9776 22.9999 15.3776 22.9999C16.8776 22.9999 18.3776 22.5999 19.6776 21.7999C23.3776 19.3999 24.4776 14.4999 22.1776 10.6999ZM20.0776 18.3999C19.6776 18.9999 19.1776 19.3999 18.4776 19.4999C18.0776 19.4999 17.5776 19.6999 15.5776 18.8999C13.8776 18.0999 12.4776 16.7999 11.4776 15.2999C10.8776 14.5999 10.5776 13.6999 10.4776 12.7999C10.4776 11.9999 10.7776 11.2999 11.2776 10.7999C11.4776 10.5999 11.6776 10.4999 11.8776 10.4999H12.3776C12.5776 10.4999 12.7776 10.4999 12.8776 10.8999C13.0776 11.3999 13.5776 12.5999 13.5776 12.6999C13.6776 12.7999 13.6776 12.9999 13.5776 13.0999C13.6776 13.2999 13.5776 13.4999 13.4776 13.5999C13.3776 13.6999 13.2776 13.8999 13.1776 13.9999C12.9776 14.0999 12.8776 14.2999 12.9776 14.4999C13.3776 15.0999 13.8776 15.6999 14.3776 16.1999C14.9776 16.6999 15.5776 17.0999 16.2776 17.3999C16.4776 17.4999 16.6776 17.4999 16.7776 17.2999C16.8776 17.0999 17.3776 16.5999 17.5776 16.3999C17.7776 16.1999 17.8776 16.1999 18.0776 16.2999L19.6776 17.0999C19.8776 17.1999 20.0776 17.2999 20.1776 17.3999C20.2776 17.6999 20.2776 18.0999 20.0776 18.3999Z" fill="white"/>
</g>
</svg>
