<svg width="30" height="30" viewBox="0 0 30 30" fill="none" xmlns="http://www.w3.org/2000/svg">
<g id="icon_in">
<circle id="Ellipse 913" cx="15" cy="15" r="15" fill="white"/>
<path id="icon" d="M15 0.00012207C6.71566 0.00012207 0 6.71578 0 15.0001C0 23.2844 6.71566 30 15 30C23.2843 30 30 23.2844 30 15.0001C29.9999 6.71578 23.2842 0.00012207 15 0.00012207ZM10.9979 22.2519H7.70455V11.6119H10.9979V22.2519ZM9.33556 10.2185C8.25997 10.2185 7.38802 9.33941 7.38802 8.25521C7.38802 7.17089 8.26009 6.29188 9.33556 6.29188C10.411 6.29188 11.283 7.17089 11.283 8.25521C11.283 9.33947 10.4111 10.2185 9.33556 10.2185ZM23.3399 22.2519H20.0625V16.6668C20.0625 15.1349 19.4807 14.2798 18.2694 14.2798C16.9511 14.2798 16.2624 15.1704 16.2624 16.6668V22.2519H13.1037V11.6119H16.2624V13.0449C16.2624 13.0449 17.2126 11.2873 19.4687 11.2873C21.7249 11.2873 23.34 12.6649 23.34 15.5148L23.3399 22.2519Z" fill="#192140"/>
</g>
</svg>
