<svg width="31" height="30" viewBox="0 0 31 30" fill="none" xmlns="http://www.w3.org/2000/svg">
<g id="icon_insta">
<rect id="bg" x="0.333374" width="30" height="30" rx="15" fill="#192140"/>
<path id="icon" d="M12.3341 15C12.3341 13.3432 13.6769 11.9998 15.3337 11.9998C16.9906 11.9998 18.3341 13.3432 18.3341 15C18.3341 16.6568 16.9906 18.0002 15.3337 18.0002C13.6769 18.0002 12.3341 16.6568 12.3341 15ZM10.7121 15C10.7121 17.5524 12.7812 19.6214 15.3337 19.6214C17.8862 19.6214 19.9553 17.5524 19.9553 15C19.9553 12.4476 17.8862 10.3786 15.3337 10.3786C12.7812 10.3786 10.7123 12.4475 10.7123 15H10.7121ZM19.0583 10.1954C19.0582 10.409 19.1215 10.6178 19.2401 10.7955C19.3587 10.9731 19.5273 11.1116 19.7246 11.1934C19.9219 11.2752 20.1391 11.2967 20.3486 11.2551C20.5581 11.2136 20.7506 11.1108 20.9017 10.9598C21.0529 10.8088 21.1558 10.6164 21.1976 10.4069C21.2393 10.1974 21.218 9.98026 21.1364 9.78288C21.0547 9.5855 20.9163 9.41678 20.7387 9.29806C20.5612 9.17929 20.3524 9.11589 20.1388 9.11583H20.1383C19.852 9.11595 19.5775 9.22972 19.375 9.4321C19.1725 9.63455 19.0586 9.90908 19.0583 10.1954ZM11.6976 22.3258C10.8201 22.2859 10.3431 22.1397 10.0262 22.0163C9.60601 21.8527 9.30619 21.6578 8.99093 21.3431C8.6757 21.0283 8.48057 20.7287 8.3177 20.3086C8.19414 19.9918 8.04798 19.5147 8.00809 18.6372C7.96445 17.6886 7.95574 17.4036 7.95574 15.0001C7.95574 12.5967 7.96518 12.3125 8.00809 11.363C8.04805 10.4856 8.1953 10.0095 8.3177 9.69173C8.48129 9.27152 8.67613 8.97171 8.99093 8.65651C9.3057 8.3413 9.60528 8.14618 10.0262 7.98332C10.343 7.85976 10.8201 7.7136 11.6976 7.67371C12.6463 7.63008 12.9313 7.62137 15.3337 7.62137C17.7362 7.62137 18.0214 7.63066 18.971 7.67386C19.8485 7.71382 20.3246 7.86106 20.6423 7.98346C21.0626 8.14632 21.3624 8.34187 21.6777 8.65666C21.9929 8.97147 22.1873 9.2717 22.3508 9.69185C22.4744 10.0087 22.6206 10.4858 22.6605 11.3632C22.7041 12.3127 22.7128 12.5968 22.7128 15.0003C22.7128 17.4037 22.7041 17.6879 22.6605 18.6374C22.6205 19.5148 22.4736 19.9918 22.3508 20.3087C22.1873 20.7289 21.9924 21.0287 21.6777 21.3432C21.3628 21.6577 21.0626 21.8528 20.6423 22.0164C20.3256 22.1399 19.8485 22.2861 18.971 22.326C18.0223 22.3696 17.7372 22.3783 15.3337 22.3783C12.9302 22.3783 12.646 22.3696 11.6976 22.326V22.3258ZM11.6231 6.05451C10.6649 6.09814 10.0102 6.25006 9.43842 6.47254C8.84663 6.70229 8.34499 7.01052 7.84407 7.51063C7.34314 8.01074 7.03569 8.51244 6.80593 9.10491C6.58344 9.67701 6.43151 10.3314 6.38788 11.2895C6.34353 12.2491 6.33337 12.5559 6.33337 15C6.33337 17.4441 6.34353 17.7509 6.38788 18.7105C6.43151 19.6687 6.58344 20.3229 6.80593 20.8951C7.03569 21.4869 7.34321 21.9895 7.84407 22.4894C8.34492 22.9893 8.84591 23.2971 9.43842 23.5275C10.0113 23.75 10.6649 23.9019 11.6231 23.9455C12.5832 23.9891 12.8895 24 15.3337 24C17.778 24 18.0848 23.9899 19.0444 23.9455C20.0027 23.9019 20.6569 23.75 21.2291 23.5275C21.8209 23.2971 22.3225 22.9895 22.8234 22.4894C23.3244 21.9892 23.6311 21.4869 23.8616 20.8951C24.084 20.3229 24.2367 19.6686 24.2796 18.7105C24.3232 17.7502 24.3334 17.4441 24.3334 15C24.3334 12.5559 24.3232 12.2491 24.2796 11.2895C24.2359 10.3313 24.084 9.67671 23.8616 9.10491C23.6311 8.51316 23.3235 8.01154 22.8234 7.51063C22.3233 7.00973 21.8209 6.70229 21.2298 6.47254C20.6569 6.25006 20.0025 6.09742 19.0451 6.05451C18.0853 6.01066 17.7787 6 15.3348 6C12.891 6 12.5836 6.01015 11.6234 6.05451" fill="white"/>
</g>
</svg>
