<svg width="30" height="30" viewBox="0 0 30 30" fill="none" xmlns="http://www.w3.org/2000/svg">
<g id="icon_twitter">
<rect id="bg" width="30" height="30" rx="15" fill="#192140"/>
<path id="icon" d="M25 9.77927C24.3381 10.0799 23.627 10.2831 22.8794 10.3749C23.6508 9.90181 24.2278 9.15718 24.503 8.27997C23.7783 8.72122 22.9851 9.03181 22.158 9.19824C21.6018 8.58947 20.8651 8.18597 20.0623 8.05038C19.2594 7.91479 18.4354 8.0547 17.7181 8.44839C17.0007 8.84208 16.4303 9.46752 16.0953 10.2276C15.7602 10.9877 15.6794 11.8399 15.8652 12.6519C14.3968 12.5764 12.9603 12.1851 11.649 11.5036C10.3376 10.8221 9.18071 9.86554 8.25332 8.69603C7.93623 9.25675 7.7539 9.90686 7.7539 10.5992C7.75354 11.2225 7.90328 11.8362 8.18981 12.386C8.47634 12.9357 8.89082 13.4045 9.39646 13.7506C8.81005 13.7315 8.23658 13.5691 7.72377 13.2768V13.3256C7.72371 14.1998 8.0187 15.0471 8.55868 15.7237C9.09865 16.4003 9.85036 16.8646 10.6863 17.0377C10.1423 17.1886 9.57192 17.2109 9.01832 17.1027C9.25416 17.8549 9.71355 18.5127 10.3322 18.9839C10.9508 19.4551 11.6977 19.7163 12.4683 19.7308C11.1602 20.7835 9.54461 21.3545 7.88153 21.352C7.58693 21.3521 7.29258 21.3344 7 21.2992C8.68813 22.4118 10.6532 23.0023 12.6602 23C19.454 23 23.168 17.2319 23.168 12.2294C23.168 12.0668 23.164 11.9027 23.1569 11.7402C23.8793 11.2046 24.5029 10.5414 24.9984 9.78171L25 9.77927Z" fill="white"/>
</g>
</svg>
