<svg width="31" height="30" viewBox="0 0 31 30" fill="none" xmlns="http://www.w3.org/2000/svg">
<g id="icon_tiktok">
<rect id="bg" x="0.666626" width="30" height="30" rx="15" fill="#192140"/>
<path id="icon" d="M23.6666 12.7916C22.0938 12.7955 20.5596 12.2859 19.2807 11.3347V17.9686C19.2803 19.1972 18.9188 20.3965 18.2447 21.4059C17.5706 22.4154 16.6159 23.187 15.5084 23.6175C14.4008 24.048 13.1932 24.1169 12.0469 23.8151C10.9007 23.5132 9.8704 22.8549 9.09392 21.9282C8.31745 21.0015 7.83176 19.8506 7.7018 18.6294C7.57185 17.4082 7.80382 16.1749 8.3667 15.0943C8.92958 14.0138 9.79653 13.1375 10.8516 12.5828C11.9068 12.028 13.0997 11.8211 14.271 11.9898V15.3264C13.735 15.1513 13.1595 15.1565 12.6265 15.3415C12.0936 15.5265 11.6306 15.8817 11.3035 16.3564C10.9765 16.8312 10.8021 17.4011 10.8054 17.9849C10.8088 18.5687 10.9895 19.1365 11.3219 19.6072C11.6543 20.0779 12.1214 20.4274 12.6564 20.6059C13.1914 20.7843 13.767 20.7825 14.3009 20.6008C14.8349 20.4191 15.3 20.0667 15.6297 19.594C15.9594 19.1213 16.137 18.5524 16.1369 17.9686V5H19.2807C19.2785 5.27584 19.3008 5.55131 19.3472 5.82292C19.4564 6.42925 19.6835 7.00605 20.0147 7.51804C20.3458 8.03003 20.774 8.46644 21.2731 8.80059C21.9831 9.28837 22.8155 9.54835 23.6666 9.54816V12.7916Z" fill="white"/>
</g>
</svg>
