<svg width="40" height="40" viewBox="0 0 40 40" fill="none" xmlns="http://www.w3.org/2000/svg">
<g id="Menu Burger" clip-path="url(#clip0_1_233)">
<circle id="Ellipse 911" cx="20" cy="20" r="19.5" stroke="#0266FF"/>
<path id="Vector" d="M11.9998 20.4726H22.8396H26.7595H27.9995C28.2766 20.4726 28.4996 20.2462 28.4996 19.9688C28.4996 19.6914 28.2766 19.465 27.9995 19.465H26.7593H22.8396H11.9998C11.7227 19.465 11.4997 19.6914 11.4997 19.9688C11.4997 20.2462 11.7227 20.4726 11.9998 20.4726ZM11.9997 14.9751H13.2399H17.1596H27.9994C28.2764 14.9751 28.4995 14.7487 28.4995 14.4714C28.4995 14.1939 28.2763 13.9679 27.9994 13.9679H17.1595H13.2396H11.9997C11.7227 13.9679 11.4996 14.1939 11.4996 14.4714C11.4996 14.7487 11.7226 14.9751 11.9997 14.9751ZM11.9997 25.9699H16.8398H20.7597H27.9994C28.2763 25.9699 28.4995 25.7439 28.4995 25.4664C28.4995 25.189 28.2764 24.9626 27.9994 24.9626H20.7595H16.8398H11.9997C11.7226 24.9626 11.4996 25.189 11.4996 25.4664C11.4996 25.7439 11.7227 25.9699 11.9997 25.9699Z" fill="#0266FF" stroke="#0266FF" stroke-width="0.2"/>
</g>
<defs>
<clipPath id="clip0_1_233">
<rect width="40" height="40" fill="white"/>
</clipPath>
</defs>
</svg>
